# xmcd
#
# Track frame offsets: 
#        150
#        13534
#        30564
#        42261
#        55303
#        67299
#        81065
#        101636
#        116219
#        125896
#        141291
#        152164
#
# Disc length: 2197 seconds
#
# Revision: 0
# Processed by: cddbd v1.5.2PL0 Copyright (c) Steve Scherf et al.
# Submitted via: ExactAudioCopy v1.3
#
DISCID=ad08930c
DTITLE=Ila Auto - Liker Ikke Køntri
DYEAR=2014
DGENRE=Bluegrass
TTITLE0=Jesus oppå veggen
TTITLE1=Samma gamle
TTITLE2=Si nei
TTITLE3=En krone for hvert øre
TTITLE4=Liker ikke køntri
TTITLE5=Øl om morran
TTITLE6=Solbråtan stasjon
TTITLE7=Det nye testamentet
TTITLE8=Jeg vet, jeg vet
TTITLE9=Fire hender
TTITLE10=Født i går
TTITLE11=Istedenfor blomster
EXTD=
EXTT0=
EXTT1=
EXTT2=
EXTT3=
EXTT4=
EXTT5=
EXTT6=
EXTT7=
EXTT8=
EXTT9=
EXTT10=
EXTT11=
PLAYORDER=
